HIERARCHY
ROOT Hips
{
    OFFSET 0.000000 0.000000 0.000000
    CHANNELS 6 Xposition Yposition Zposition Zrotation Xrotation Yrotation
    JOINT Spine
    {
        OFFSET -0.000000 14.517291 0.000000
        CHANNELS 3 Zrotation Xrotation Yrotation
        JOINT Spine1
        {
            OFFSET -0.000000 37.558300 0.000000
            CHANNELS 3 Zrotation Xrotation Yrotation
            JOINT Neck
            {
                OFFSET -0.000000 37.404057 3.400369
                CHANNELS 3 Zrotation Xrotation Yrotation
                JOINT Head
                {
                    OFFSET -0.000000 24.785618 -3.540803
                    CHANNELS 3 Zrotation Xrotation Yrotation
                    End Site
                    {
                        OFFSET -0.000000 35.408028 0.000000
                    }
                }
            }
            JOINT LeftShoulder
            {
                OFFSET 6.992933 33.973492 -0.192664
                CHANNELS 3 Zrotation Xrotation Yrotation
                JOINT LeftArm
                {
                    OFFSET 21.527611 0.000000 0.000000
                    CHANNELS 3 Zrotation Xrotation Yrotation
                    JOINT LeftForeArm
                    {
                        OFFSET 56.353916 0.000000 0.000000
                        CHANNELS 3 Zrotation Xrotation Yrotation
                        JOINT LeftHand
                        {
                            OFFSET 47.774071 0.000000 0.000000
                            CHANNELS 3 Zrotation Xrotation Yrotation
                            End Site
                            {
                                OFFSET 26.556021 0.000000 0.000000
                            }
                        }
                    }
                }
            }
            JOINT RightShoulder
            {
                OFFSET -7.065357 33.973492 -0.192664
                CHANNELS 3 Zrotation Xrotation Yrotation
                JOINT RightArm
                {
                    OFFSET -21.527611 0.000000 0.000000
                    CHANNELS 3 Zrotation Xrotation Yrotation
                    JOINT RightForeArm
                    {
                        OFFSET -56.353916 0.000000 0.000000
                        CHANNELS 3 Zrotation Xrotation Yrotation
                        JOINT RightHand
                        {
                            OFFSET -47.774071 0.000000 0.000000
                            CHANNELS 3 Zrotation Xrotation Yrotation
                            End Site
                            {
                                OFFSET -26.556021 0.000000 0.000000
                            }
                        }
                    }
                }
            }
        }
    }
    JOINT LeftUpLeg
    {
        OFFSET 17.704014 0.000000 0.000000
        CHANNELS 3 Zrotation Xrotation Yrotation
        JOINT LeftLeg
        {
            OFFSET -0.000000 -81.181816 0.000000
            CHANNELS 3 Zrotation Xrotation Yrotation
            JOINT LeftFoot
            {
                OFFSET -0.000000 -62.821102 0.000000
                CHANNELS 3 Zrotation Xrotation Yrotation
                JOINT LeftToeBase
                {
                    OFFSET -0.000000 -11.507608 26.556021
                    CHANNELS 3 Zrotation Xrotation Yrotation
                    End Site
                    {
                        OFFSET -0.000000 0.000000 7.081605
                    }
                }
            }
        }
    }
    JOINT RightUpLeg
    {
        OFFSET -17.704014 0.000000 0.000000
        CHANNELS 3 Zrotation Xrotation Yrotation
        JOINT RightLeg
        {
            OFFSET -0.000000 -81.181816 0.000000
            CHANNELS 3 Zrotation Xrotation Yrotation
            JOINT RightFoot
            {
                OFFSET -0.000000 -62.821102 0.000000
                CHANNELS 3 Zrotation Xrotation Yrotation
                JOINT RightToeBase
                {
                    OFFSET -0.000000 -11.507608 26.556021
                    CHANNELS 3 Zrotation Xrotation Yrotation
                    End Site
                    {
                        OFFSET -0.000000 0.000000 7.081605
                    }
                }
            }
        }
    }
}
MOTION
Frames:    4
Frame Time:    0.008333
12.947983    151.309128    37.534962    4.517587    4.182588    -49.538914    2.824931    1.368128    -1.779910    -1.234452    2.369517    -0.556550    13.464449    2.291598    8.063486    -8.104265    0.402183    5.533442    10.293881    4.041917    -16.782051    -10.311284    -3.731875    -21.857931    12.169600    -0.615749    -50.442322    -1.217212    5.609526    -42.707458    -10.816468    -0.841667    -6.798231    28.511238    -23.946543    38.418804    4.539777    -23.683804    106.220627    13.706308    -25.863415    29.752180    32.654770    -25.095911    22.458929    -17.772221    22.457298    2.979470    -6.281633    -9.562038    53.756207    0.000000    0.000000    0.000000    -16.270861    -22.046139    -16.150234    9.026638    50.300125    -7.998672    5.912885    -25.245401    -3.564600    0.000000    0.000000    0.000000    
12.951921    151.622040    37.474407    4.565099    4.198501    -49.799667    2.842298    1.327171    -1.686988    -1.249682    2.346741    -0.526796    13.632201    2.453577    8.149853    -8.321455    0.344822    5.587231    10.394670    4.145696    -16.710808    -10.444823    -3.820205    -21.897945    12.227717    -0.401188    -50.578587    -1.008196    5.785908    -42.586361    -10.696699    -0.816734    -6.629230    28.296556    -23.895824    38.330654    4.584463    -23.741421    106.101624    13.828300    -25.921879    29.842585    32.357651    -25.002831    21.697863    -17.363966    22.064001    2.610470    -6.283965    -9.638310    53.435825    0.000000    0.000000    0.000000    -16.137461    -21.970482    -16.085480    8.835150    49.755890    -7.785469    5.870805    -24.869740    -3.491304    0.000000    0.000000    0.000000    
12.950102    151.926010    37.406361    4.623800    4.211599    -50.055794    2.894062    1.273133    -1.587949    -1.266018    2.368458    -0.493477    13.623499    2.510687    8.214466    -8.430771    0.336433    5.646884    10.364861    4.141726    -16.647877    -10.480709    -3.806229    -21.884239    12.132756    -0.499263    -50.684879    -1.222669    5.739769    -42.565674    -10.751325    -0.823788    -6.571537    28.270271    -23.794788    38.337906    4.576894    -23.753803    106.013390    13.848997    -25.906910    29.877741    32.062946    -24.928770    20.772017    -16.971777    21.752291    2.147664    -6.579494    -10.045172    53.241699    0.000000    0.000000    0.000000    -16.003134    -21.912924    -15.972325    8.670198    49.225601    -7.619359    5.827770    -24.516771    -3.423534    0.000000    0.000000    0.000000    
12.945879    152.226166    37.343933    4.658340    4.243829    -50.312786    2.982959    1.229399    -1.489218    -1.298018    2.375661    -0.459865    13.633740    2.578213    8.277962    -8.552083    0.325926    5.702391    10.339140    4.207957    -16.559759    -10.475210    -3.689848    -21.924276    12.311873    -0.452070    -50.700462    -1.019972    5.795079    -42.506607    -10.774255    -0.805883    -6.490951    28.225166    -23.762293    38.323322    4.629041    -23.679972    105.959496    13.799091    -25.902771    29.885065    31.801027    -24.834738    19.945576    -16.603493    21.373520    1.734691    -6.825573    -10.354149    53.023502    0.000000    0.000000    0.000000    -15.825787    -21.856594    -15.863509    8.471166    48.706646    -7.374798    5.765411    -24.139147    -3.447765    0.000000    0.000000    0.000000    
